<svg version="1.1" xmlns="http://www.w3.org/2000/svg" xmlns:xlink="http://www.w3.org/1999/xlink">
<defs>

<symbol id="logo" viewBox="0 0 205 61" fill="none">
<path d="M41.7845 15.6701C41.7845 14.3226 41.7845 13.2445 41.7845 11.897C41.7845 11.0885 41.7845 10.0104 41.7845 9.20189H40.7462C36.0738 9.20189 32.6994 12.7055 32.6994 17.5567V20.5213C32.6994 21.0603 32.6994 21.5994 32.6994 22.1384V23.2164C32.6994 24.564 32.6994 25.9115 32.6994 27.2591C32.6994 31.8407 28.8057 35.8834 24.393 35.8834C19.7207 35.8834 16.0866 32.1102 16.0866 27.2591C16.0866 26.4505 16.0866 25.3725 16.0866 24.564C16.0866 23.4859 16.0866 22.4079 16.0866 21.3298C16.0866 19.4433 16.0866 17.8262 15.827 15.9396C15.3079 12.975 12.7121 10.0104 9.59726 9.47136C8.81854 9.20189 7.78024 9.20189 6.74194 9.20189V22.1384V27.7981C6.74194 29.4151 7.00152 31.0322 7.52067 32.9188C9.33768 38.5785 13.4909 42.6211 18.6824 44.5077C23.8738 46.3943 29.5845 45.5858 33.9972 42.0821C38.6696 38.848 41.2653 34.2663 41.5249 28.6066C41.7845 24.564 41.7845 19.9823 41.7845 15.6701Z" fill="white"/>
<path d="M29.4735 55.364C36.3073 52.5494 52.427 43.8555 52.427 24.4636V12.7482C52.427 9.44774 52.427 7.79503 51.7204 6.53317C51.0983 5.42213 50.1029 4.51948 48.8819 3.95337C47.4937 3.3098 42.044 1.86465 42.044 1.86465C42.044 1.86465 32.5991 0 26.4696 0C20.3401 0 10.8951 1.86465 10.8951 1.86465C10.8951 1.86465 5.44288 3.3098 4.05474 3.95337C2.83368 4.51948 1.84166 5.42213 1.2195 6.53317C0.512207 7.79626 0.512207 9.45097 0.512207 12.7579V24.4636C0.512207 43.8554 16.6311 52.5495 23.4649 55.364C24.1894 55.6624 24.5534 55.8113 25.3734 55.9394C25.8906 56.0202 27.0519 56.0202 27.5691 55.9394C28.3863 55.8118 28.7465 55.6634 29.466 55.3671L29.4735 55.364Z" fill="#3C3C43"/>
<path d="M44.4401 15.8494C44.4401 14.5589 44.4401 13.5265 44.4401 12.2361C44.4401 11.4618 44.4401 10.4294 44.4401 9.65517H43.3751C38.583 9.65517 35.122 13.0104 35.122 17.656V20.4951C35.122 21.0112 35.122 21.5274 35.122 22.0436V23.076C35.122 24.3665 35.122 25.6569 35.122 26.9474C35.122 31.3349 31.1286 35.2063 26.6027 35.2063C21.8105 35.2063 18.0833 31.593 18.0833 26.9474C18.0833 26.1731 18.0833 25.1407 18.0833 24.3665C18.0833 23.3341 18.0833 22.3017 18.0833 21.2693C18.0833 19.4627 18.0833 17.9141 17.8171 16.1075C17.2846 13.2685 14.6223 10.4294 11.4276 9.91323C10.6289 9.65517 9.56394 9.65517 8.49902 9.65517V22.0436V27.4636C8.49902 29.0121 8.76525 30.5607 9.29771 32.3673C11.1613 37.7873 15.421 41.6586 20.7456 43.4653C26.0702 45.272 31.9273 44.4977 36.4532 41.1425C41.2453 38.0454 43.9076 33.6578 44.1738 28.2378C44.4401 24.3665 44.4401 19.9789 44.4401 15.8494Z" fill="white"/>
<path d="M82.21 45.405C81.1 45.405 80.2 45.15 79.51 44.64C78.82 44.1 78.28 43.275 77.89 42.165L69.115 17.73C68.635 16.38 68.71 15.24 69.34 14.31C70 13.35 71.155 12.87 72.805 12.87C73.915 12.87 74.785 13.14 75.415 13.68C76.045 14.19 76.54 15 76.9 16.11L83.605 36.225H81.49L88.69 16.11C89.11 15 89.635 14.19 90.265 13.68C90.895 13.14 91.705 12.87 92.695 12.87C93.685 12.87 94.48 13.14 95.08 13.68C95.68 14.19 96.175 15.015 96.565 16.155L103.315 36.225H101.515L108.4 16.11C108.76 15 109.24 14.19 109.84 13.68C110.47 13.14 111.34 12.87 112.45 12.87C113.83 12.87 114.835 13.35 115.465 14.31C116.125 15.24 116.2 16.38 115.69 17.73L106.825 42.21C106.435 43.29 105.895 44.1 105.205 44.64C104.545 45.15 103.66 45.405 102.55 45.405C101.41 45.405 100.495 45.15 99.805 44.64C99.145 44.1 98.62 43.275 98.23 42.165L91.885 24.345H93.01L86.53 42.21C86.11 43.29 85.57 44.1 84.91 44.64C84.25 45.15 83.35 45.405 82.21 45.405ZM132.957 45C131.547 45 130.467 44.64 129.717 43.92C128.997 43.17 128.637 42.105 128.637 40.725V17.55C128.637 16.17 128.997 15.12 129.717 14.4C130.467 13.65 131.547 13.275 132.957 13.275H148.212C149.292 13.275 150.102 13.545 150.642 14.085C151.182 14.625 151.452 15.405 151.452 16.425C151.452 17.475 151.182 18.285 150.642 18.855C150.102 19.395 149.292 19.665 148.212 19.665H136.557V25.695H147.222C148.272 25.695 149.067 25.965 149.607 26.505C150.177 27.045 150.462 27.84 150.462 28.89C150.462 29.94 150.177 30.735 149.607 31.275C149.067 31.815 148.272 32.085 147.222 32.085H136.557V38.61H148.212C149.292 38.61 150.102 38.895 150.642 39.465C151.182 40.005 151.452 40.785 151.452 41.805C151.452 42.855 151.182 43.65 150.642 44.19C150.102 44.73 149.292 45 148.212 45H132.957ZM168.598 45C167.188 45 166.108 44.64 165.358 43.92C164.638 43.17 164.278 42.105 164.278 40.725V17.55C164.278 16.17 164.638 15.12 165.358 14.4C166.108 13.65 167.188 13.275 168.598 13.275H179.578C181.858 13.275 183.793 13.62 185.383 14.31C187.003 14.97 188.233 15.915 189.073 17.145C189.913 18.375 190.333 19.815 190.333 21.465C190.333 23.325 189.793 24.915 188.713 26.235C187.663 27.555 186.223 28.455 184.393 28.935V28.215C186.553 28.605 188.218 29.475 189.388 30.825C190.588 32.175 191.188 33.9 191.188 36C191.188 38.79 190.183 40.995 188.173 42.615C186.193 44.205 183.478 45 180.028 45H168.598ZM172.198 38.925H178.903C180.433 38.925 181.543 38.64 182.233 38.07C182.953 37.47 183.313 36.585 183.313 35.415C183.313 34.245 182.953 33.375 182.233 32.805C181.543 32.235 180.433 31.95 178.903 31.95H172.198V38.925ZM172.198 25.875H178.093C179.593 25.875 180.688 25.605 181.378 25.065C182.098 24.525 182.458 23.7 182.458 22.59C182.458 21.48 182.098 20.67 181.378 20.16C180.688 19.62 179.593 19.35 178.093 19.35H172.198V25.875Z" fill="#3C3C43"/>
</symbol>

<symbol  viewBox="0 0 45 45"  >
  <rect x="2" y="2" width="38" height="38" rx="19" stroke="#82A5CE" stroke-width="4"/>
  <g clip-path="url(#clip0_2001_96)">
    <g clip-path="url(#clip1_2001_96)">
      <path  fill-rule="evenodd" clip-rule="evenodd" d="M16.4732 20.9366L13.2473 19.7549C12.9196 19.6344 12.9168 19.1804 13.2435 19.0568L26.4826 14.0442C26.7633 13.9377 27.0529 14.179 26.9917 14.4683L24.6159 25.6847C24.5599 25.9495 24.2435 26.0696 24.0202 25.9103L20.777 23.5993C20.58 23.459 20.3115 23.4665 20.1231 23.6172L18.3249 25.0559C18.1161 25.2234 17.8017 25.1301 17.7218 24.8777L16.4732 20.9366ZM23.8251 16.4966L17.5205 20.3076C17.2789 20.454 17.1651 20.7404 17.2432 21.0085L17.9249 23.3593C17.9733 23.5258 18.2196 23.5087 18.2431 23.3366L18.4203 22.0475C18.4537 21.8048 18.5717 21.5812 18.7546 21.4141L23.9577 16.6672C24.055 16.5786 23.9384 16.4283 23.8251 16.4966Z" fill="#3C3C43"/>
    </g>
  </g>
</symbol>

<symbol id="telegram"  viewBox="0 0 24 24" 
xmlns="http://www.w3.org/2000/svg">
<path d="m20.665 3.717-17.73 6.837c-1.21.486-1.203 1.161-.222
 1.462l4.552 1.42 10.532-6.645c.498-.303.953-.14.579.192l-8.533 
 7.701h-.002l.002.001-.314 4.692c.46 0 .663-.211.921-.46l2.211-2.15
  4.599 3.397c.848.467 1.457.227 1.668-.785l3.019-14.228c.309-1.239-.473-1.8-1.282-1.434z"/>
</symbol>


<symbol  version="1.1" id="whatsapp"  
	 viewBox="0 0 308 308" xml:space="preserve">
<g id="XMLID_468_">
	<path id="XMLID_469_" d="M227.904,176.981c-0.6-0.288-23.054-11.345-27.044-12.781c-1.629-0.585-3.374-1.156-5.23-1.156
		c-3.032,0-5.579,1.511-7.563,4.479c-2.243,3.334-9.033,11.271-11.131,13.642c-0.274,0.313-0.648,0.687-0.872,0.687
		c-0.201,0-3.676-1.431-4.728-1.888c-24.087-10.463-42.37-35.624-44.877-39.867c-0.358-0.61-0.373-0.887-0.376-0.887
		c0.088-0.323,0.898-1.135,1.316-1.554c1.223-1.21,2.548-2.805,3.83-4.348c0.607-0.731,1.215-1.463,1.812-2.153
		c1.86-2.164,2.688-3.844,3.648-5.79l0.503-1.011c2.344-4.657,0.342-8.587-0.305-9.856c-0.531-1.062-10.012-23.944-11.02-26.348
		c-2.424-5.801-5.627-8.502-10.078-8.502c-0.413,0,0,0-1.732,0.073c-2.109,0.089-13.594,1.601-18.672,4.802
		c-5.385,3.395-14.495,14.217-14.495,33.249c0,17.129,10.87,33.302,15.537,39.453c0.116,0.155,0.329,0.47,0.638,0.922
		c17.873,26.102,40.154,45.446,62.741,54.469c21.745,8.686,32.042,9.69,37.896,9.69c0.001,0,0.001,0,0.001,0
		c2.46,0,4.429-0.193,6.166-0.364l1.102-0.105c7.512-0.666,24.02-9.22,27.775-19.655c2.958-8.219,3.738-17.199,1.77-20.458
		C233.168,179.508,230.845,178.393,227.904,176.981z"/>
	<path id="XMLID_470_" d="M156.734,0C73.318,0,5.454,67.354,5.454,150.143c0,26.777,7.166,52.988,20.741,75.928L0.212,302.716
		c-0.484,1.429-0.124,3.009,0.933,4.085C1.908,307.58,2.943,308,4,308c0.405,0,0.813-0.061,1.211-0.188l79.92-25.396
		c21.87,11.685,46.588,17.853,71.604,17.853C240.143,300.27,308,232.923,308,150.143C308,67.354,240.143,0,156.734,0z
		 M156.734,268.994c-23.539,0-46.338-6.797-65.936-19.657c-0.659-0.433-1.424-0.655-2.194-0.655c-0.407,0-0.815,0.062-1.212,0.188
		l-40.035,12.726l12.924-38.129c0.418-1.234,0.209-2.595-0.561-3.647c-14.924-20.392-22.813-44.485-22.813-69.677
		c0-65.543,53.754-118.867,119.826-118.867c66.064,0,119.812,53.324,119.812,118.867
		C276.546,215.678,222.799,268.994,156.734,268.994z"/>
</g>
</symbol>


</defs>
</svg>